<?xml version="1.0" encoding="UTF-8"?>
<svg id="Layer_1" data-name="Layer 1" xmlns="http://www.w3.org/2000/svg" viewBox="0 0 895.92 534.35">
  <defs>
    <style>
      .cls-1 {
        fill: #104a52;
      }

      .cls-1, .cls-2 {
        stroke-width: 0px;
      }

      .cls-2 {
        fill: #faaf18;
      }
    </style>
  </defs>
  <path class="cls-1" d="m263.56,10.12c38.5-14.32,82.39-13.41,120.24,2.55,32.23,13.4,59.9,37.37,77.86,67.29,15.21,25.1,23.39,54.36,23.55,83.7.02,17.74,0,35.47,0,53.21,23.04.02,46.07-.02,69.11.02,0,32.88.01,65.76,0,98.64-23.03.01-46.07,0-69.1.01,0,70.66.01,141.32,0,211.99h-98.65c-.02-120.99,0-241.97,0-362.96-.01-16.71-6.67-33.28-18.24-45.33-10.54-11.14-25.04-18.45-40.28-20.13-15.8-1.92-32.23,2.23-45.25,11.37-14.12,9.74-24.2,25.17-27.3,42.06-1.54,7.61-1.1,15.4-1.15,23.11-.01,117.3,0,234.59-.01,351.88h-98.65c-.01-70.68,0-141.35,0-212.03-32.06-.39-63.86-10.89-89.82-29.69-20.37-14.61-37.2-34.14-48.58-56.48C6.05,207.59.14,183.16.01,158.69,0,107.42,0,56.15.01,4.88c32.88,0,65.77,0,98.65,0,.02,51.26-.02,102.53.02,153.79.15,19.28,10.55,38.02,26.72,48.48,8.96,5.94,19.56,9.22,30.27,9.69.01-17.38.01-34.77.01-52.16,0-27.49,6.98-54.97,20.28-79.04,18.89-34.59,50.58-61.97,87.6-75.53Z"/>
  <path class="cls-1" d="m724.12,4.89c32.89,0,65.77,0,98.66,0-.01,51.92.02,103.84-.02,155.77-.54,45.13-21.92,89.39-56.72,118.05-27.91,23.7-64.4,36.92-101.01,36.84,0,18.03,0,36.06,0,54.09.02,14.93,5.24,29.8,14.67,41.38,10.78,13.46,27,22.44,44.17,24.24,16.02,1.86,32.65-2.51,45.72-11.95,13.44-9.58,23.1-24.36,26.33-40.56,1.93-8.92,1.2-18.08,1.34-27.12v-40.1c32.89-.01,65.77,0,98.66,0,0,17.71,0,35.42,0,53.13.04,17.28-2.53,34.58-7.82,51.03-11.26,35.48-35.05,66.75-66.09,87.26-33.43,22.38-75.26,31.63-115.02,25.61-28.85-4.2-56.45-16.37-79.11-34.68-37.6-29.98-60.89-77.04-61.48-125.17-.08-51.94,0-103.89-.03-155.83,33.2-.02,66.4.02,99.61-.02,15.16-.2,30.12-6.55,40.8-17.32,10.8-10.71,17.18-25.71,17.34-40.93,0-51.24-.01-102.48,0-153.72Z"/>
  <g>
    <path class="cls-2" d="m524.09,4.74c5.68-.02,11.36-.02,17.05-.01,0,24.7,0,49.4,0,74.1-5.69,0-11.37,0-17.05,0,0-24.7,0-49.4,0-74.09Z"/>
    <path class="cls-2" d="m566.29,4.86c5.97-.27,11.95-.08,17.93-.12-6.89,11.49-13.71,23.01-20.7,34.43,2.52,6.13,5.31,12.15,7.94,18.24,1.62,3.45,3.37,7.11,6.52,9.43,3.01,2.13,6.93,1.86,10.35,1.08,1.38,3.19,2.74,6.39,4.08,9.59-7.2,3-15.57,3.69-22.91.78-6.2-2.56-10.35-8.37-12.74-14.43-3.1-7.82-6.3-15.61-9.37-23.44-.59-1.17.58-2.23.98-3.26,6-10.75,12.07-21.47,17.92-32.3Z"/>
    <path class="cls-2" d="m600.33,4.75c5.68-.03,11.36-.02,17.05-.01.02,15.36,0,30.72.01,46.08-.03,4.36,1.28,8.94,4.51,12.01,5.48,5.24,15.24,4.89,20.32-.75,2.81-3.02,3.98-7.23,3.97-11.29.02-15.35-.01-30.7,0-46.05,5.68-.02,11.36-.01,17.05,0,.01,15.37,0,30.73.01,46.09-.03,6.99-2.11,14.21-6.94,19.42-6.35,7-16.12,9.99-25.37,9.87-8.93-.2-18.3-3.26-24.23-10.22-4.6-5.18-6.44-12.25-6.39-19.06-.01-15.36-.01-30.73,0-46.09Z"/>
    <path class="cls-2" d="m602.96,90.81h18v75h-18v-75Z"/>
    <path class="cls-2" d="m524.09,91.68c11.95-.01,23.9,0,35.85-.01,6.86.01,14.12,2.03,18.92,7.19,6.97,7.54,8.51,19.59,3.96,28.74-2.84,5.71-8.83,8.75-14.72,10.35.6,5.74,2.01,12.26,7.18,15.65,4.07,2.78,9.29,1.95,13.69.51,1.46,3,2.9,6.01,4.33,9.03-8.8,4.35-20.37,6.08-28.87.17-7.67-5.8-9.66-15.96-10.51-24.98-4.26-.01-8.52-.02-12.78,0,0,9.15,0,18.3,0,27.44-5.69,0-11.37.02-17.05,0,0-24.7,0-49.39,0-74.09Zm17.06,13.58c-.02,7.84,0,15.69,0,23.53,5.66-.05,11.32.13,16.98-.06,5.21-.22,9.47-4.84,10.06-9.89.93-5.95-3.15-12.68-9.37-13.45-5.88-.33-11.78-.03-17.66-.13Z"/>
  </g>
</svg>